<svg width="118" height="182" viewBox="0 0 118 182" fill="none" xmlns="http://www.w3.org/2000/svg">
<path d="M5.01265 126.701C2.69824 126.455 0.541752 126.22 0.111544 124.598C-0.318665 122.976 0.405611 121.717 3.82549 121.18C7.24538 120.643 14.0089 122.388 17.1021 123.082C16.9276 124.059 16.8528 125.053 16.8788 126.047C12.7401 125.884 7.33796 126.942 5.01265 126.701Z" fill="#FF9100"/>
<path d="M59.6385 124.196C53.0824 127.859 46.0377 130.102 38.3153 128.888C38.1315 128.863 36.3769 128.537 35.2527 128.326C36.3655 127.674 37.2364 126.705 37.7427 125.556C38.7934 123.549 38.8564 117.527 34.0076 118.626C32.957 116.749 33.5401 114.898 34.16 112.559C34.7799 110.221 34.9585 108.801 32.9517 108.68C30.9449 108.56 29.4005 109.819 28.4496 111.134C27.4988 112.449 27.6354 114.541 28.4969 115.997C28.9136 116.625 29.4629 117.163 30.1097 117.577C30.8189 118.029 31.4177 118.42 31.9588 118.787C30.6192 119.288 28.9697 120.066 28.187 121.08C26.6845 120.357 21.5573 114.521 20.5907 111.877C19.6241 109.232 17.2076 101.755 16.6875 100.586C15.5212 97.9467 12.3062 100.953 12.9839 104.325C13.9873 109.282 18.9516 115.364 19.2879 115.776C14.0345 115.274 8.2244 109.252 5.96022 105.775C4.55233 103.617 2.38797 104.239 1.75758 104.962C0.523048 106.387 1.60522 109.272 3.13919 111.129C6.23339 114.888 11.3028 117.708 15.91 119.098C14.0083 121.045 13.4987 124.116 14.1659 126.871C10.2469 128.777 7.01088 131.678 5.76059 134.167C4.95684 135.717 5.56622 137.102 7.59925 136.902C9.87393 136.681 11.7126 134.774 13.0207 133.198C13.8992 132.088 14.6844 130.914 15.3689 129.686C17.9483 133.76 28.8751 134.894 31.8905 131.081C34.7221 132.36 41.1521 133.178 48.9218 132.114C51.6723 131.762 54.3689 131.096 56.9541 130.132C58.6358 129.48 60.2244 128.626 61.682 127.593C62.6885 126.858 63.6049 126.016 64.4138 125.084C65.1164 124.207 65.7121 123.255 66.1894 122.249C66.6125 121.204 66.9463 120.129 67.1875 119.032C64.831 120.957 62.3054 122.685 59.6385 124.196Z" fill="#FF9100"/>
<path d="M29.9311 121.329C21.2749 119.205 23.8856 131.315 30.5396 131.263C29.5647 130.368 28.9258 129.14 28.7364 127.8C28.3879 125.543 29.295 122.149 29.9311 121.329Z" fill="#EA7400"/>
<path d="M64.4938 121.023C63.7562 122.855 63.2005 124.832 62.7003 126.49C62.5639 126.95 62.4326 127.409 62.3012 127.868C62.574 127.661 62.8468 127.471 63.1146 127.241C64.0825 126.42 64.9638 125.48 65.7417 124.44C66.4174 123.46 66.9903 122.398 67.4493 121.275C67.8562 120.109 68.1772 118.908 68.4092 117.684C67.156 118.87 65.8492 119.984 64.4938 121.023Z" fill="#EA7400"/>
<path d="M32.4851 112.204C34.5197 111.25 37.314 110.614 37.7698 112.262C38.067 110.752 37.7698 109.867 35.8277 109.771C33.2976 109.649 31.3622 110.974 30.1665 112.363C29.4596 113.275 29.1809 114.359 29.3804 115.421C29.6381 114.155 30.979 112.909 32.4851 112.204Z" fill="#FFAF41"/>
<path d="M100.936 168.102C98.1107 167.742 90.3635 165.975 85.9839 164.238C81.6044 162.5 77.5884 160.615 73.8993 158.039C71.7429 156.514 69.7958 154.745 68.102 152.773C65.1453 149.251 63.2248 145.065 62.5314 140.632C62.2055 138.044 62.2249 135.428 62.5894 132.844C63.0735 128.423 64.3566 124.11 66.3839 120.091C70.0309 120.92 81.3567 118.611 88.6665 116.553C91.9024 117.831 101.884 123.571 103.471 127.726C97.336 127.904 112.488 151.475 114.57 150.187C115.513 149.604 113.516 158.577 114.375 158.735C114.365 159.916 114.28 161.096 114.122 162.268C113.792 164.413 113.183 166.511 112.309 168.516C108.512 168.717 104.704 168.578 100.936 168.102Z" fill="#FFBA00"/>
<path d="M118.494 150.5C116.298 150.47 106.539 147.91 105.057 148.189C105.002 143.71 107.373 135.951 106.989 131.486C112.692 129.709 116.15 139.04 117.577 141.967C118.351 143.504 118 148.889 118.494 150.5Z" fill="#FFBA00"/>
<path d="M93.4512 32.9053C94.4587 34.756 97.386 37.768 100.858 37.2915C100.896 37.1203 101.093 36.3245 101.137 36.1533C101.489 34.0229 101.476 31.8688 101.099 29.7407C100.548 27.7076 99.7813 25.709 98.8053 23.7629C93.4956 25.3684 91.7911 29.8748 93.4512 32.9053Z" fill="#FFC400"/>
<path d="M90.0033 183.478C89.1502 182.132 86.5908 180.983 85.073 180.628C81.7705 175.186 84.0262 167.649 86.952 162.15C85.6906 161.67 84.4397 161.189 83.2045 160.684C81.347 163.585 80.0873 166.776 79.4885 170.096C79.1025 173.498 79.3378 176.936 80.1846 180.267C79.41 180.142 78.6144 180.032 77.8608 179.94C72.8288 179.296 67.7275 179.249 62.6826 179.801C60.1736 180.081 57.7123 180.646 55.3552 181.483C54.1448 181.943 52.9977 182.532 51.9374 183.238C51.2242 183.738 50.5777 184.314 50.0114 184.954C49.7353 185.29 49.4984 185.653 49.3048 186.035C49.1213 186.462 48.988 186.905 48.907 187.357C48.8495 187.848 48.8495 188.342 48.907 188.833C48.9835 189.28 49.117 189.717 49.3048 190.135C49.4618 190.453 50.875 192.409 54.3712 192.294C53.8478 193.255 53.9734 194.865 56.2397 195.471C59.291 196.278 62.9233 195.317 63.9439 193.764C64.4673 195.63 67.4715 195.207 70.0257 193.524C72.5798 191.842 72.8467 189.496 72.2762 187.977C76.3796 188.357 83.0266 188.64 86.6484 187.814C90.5738 186.929 90.8564 184.814 90.0033 183.478Z" fill="#FF9100"/>
<path d="M83.0281 165.535C83.5754 165.795 84.1227 166.073 84.67 166.342C85.2517 164.892 85.9408 163.475 86.7334 162.099C85.4144 161.635 84.1063 161.171 82.8147 160.684C81.9705 161.928 81.2386 163.224 80.6254 164.561C81.4464 164.858 82.2509 165.201 83.0281 165.535Z" fill="#EA7400"/>
<path d="M124.545 27.158C125.013 30.6898 122.479 37.0406 121.311 40.7369C118.059 39.8357 114.659 39.3519 111.231 39.3023H111.165C114.282 34.0342 119.025 29.5567 124.545 27.158Z" fill="#F3041F"/>
<path d="M118.14 31.2887C119.763 30.2092 121.495 29.2634 123.313 28.463C123.404 27.6528 123.404 26.8366 123.313 26.0264C118.616 28.1875 114.439 31.8235 111.165 36.2106C113.34 34.4094 115.672 32.7636 118.14 31.2887Z" fill="#FF8570"/>
<path d="M105.056 10.1841C103.619 13.4736 100.127 19.1084 97.042 21.4999C95.9017 19.6437 94.4885 17.9331 92.8402 16.4142C96.4083 13.6282 100.562 11.51 105.056 10.1841V10.1841Z" fill="#F3041F"/>
<path d="M83.2709 0C84.8266 3.83719 85.9845 7.76699 86.7334 11.7509C83.1638 11.3302 78.3627 11.9239 75.7391 12.4474C77.274 8.29669 80.207 2.87463 83.2709 0Z" fill="#F3041F"/>
<path d="M84.2896 7.92105C83.6504 5.24408 82.8486 2.59985 81.8876 0C81.4645 0.445523 81.0414 0.948906 80.6248 1.48701C81.3343 2.64421 83.7232 6.94322 84.2896 7.92105Z" fill="#FF8570"/>
<path d="M56.1933 6.78979C59.8454 7.97556 65.5756 10.8347 68.4092 13.2884C67.1155 13.9557 63.2286 15.778 61.4826 16.974C58.3056 12.9393 56.4509 9.32045 56.1933 6.78979Z" fill="#F3041F"/>
<path d="M48.8641 25.7732C51.6899 22.6889 55.619 20.7574 59.8584 20.3687C58.1391 22.8306 56.7458 25.4917 55.7111 28.2897C53.5034 27.2717 51.2134 26.4301 48.8641 25.7732Z" fill="#F3041F"/>
<path d="M111.126 37.3427C110.711 37.9572 110.317 38.5861 109.943 39.2294H110.034C113.565 39.2796 117.067 39.788 120.417 40.7368C120.575 40.2567 120.745 39.6998 120.938 39.1237C117.861 37.9273 114.511 37.3193 111.126 37.3427Z" fill="#C2041C"/>
<path d="M94.7081 14.7104C94.0455 15.0692 93.4431 15.4688 92.8408 15.8684C94.5624 17.2141 96.0372 18.7275 97.226 20.3683C97.8472 19.9494 98.4233 19.4939 98.9487 19.0061C97.9679 17.3581 96.5205 15.8919 94.7081 14.7104V14.7104Z" fill="#C2041C"/>
<path d="M76.81 11.2032C76.4054 12.0235 76.0484 12.8225 75.7391 13.5788C78.3627 13.1003 83.146 12.5576 86.7334 12.9422C86.5311 12.0534 86.3169 11.1733 86.0909 10.2888C82.9391 9.99861 79.7365 10.3141 76.81 11.2032Z" fill="#C2041C"/>
<path d="M63.3306 12.4695C62.2617 13.0987 61.0155 13.7229 59.858 14.422C60.4119 15.251 61.0211 16.0999 61.7078 16.9738C63.3693 15.8103 67.1575 14.0375 68.4092 13.3883C67.5035 12.628 66.5311 11.935 65.5016 11.3159C64.7705 11.6605 64.0395 12.05 63.3306 12.4695Z" fill="#C2041C"/>
<path d="M52.5283 26.9066C53.4609 27.327 54.373 27.7779 55.2594 28.2897C56.1019 25.4917 57.2363 22.8306 58.6362 20.3687C57.8198 20.4345 57.012 20.6083 56.2279 20.8866C54.736 22.6492 53.4874 24.6809 52.5283 26.9066Z" fill="#C2041C"/>
<path d="M111.16 134.462C110.402 133.323 108.238 131.227 108.066 131.263C108.415 135.388 105.031 144.107 105.057 148.237C105.562 148.142 108.354 147.893 109.284 147.83C109.638 144.889 111.257 137.426 111.16 134.462Z" fill="#F5A900"/>
<path d="M89.1763 116.292C87.9507 115.102 86.2905 115.735 85.5625 115.421C78.3035 117.663 72.1706 117.796 68.5411 116.903C68.2426 117.509 67.8864 118.141 67.2003 119.607C66.708 120.648 80.6446 123.592 89.1763 116.292Z" fill="#F5A900"/>
<path d="M82.182 142.017C80.0341 144.931 88.8243 147.963 91.4222 144.267C93.7381 140.921 95.4427 137.174 96.4534 133.205C97.4403 129.588 84.3252 139.083 82.182 142.017Z" fill="#F5A900"/>
<path d="M90.9148 155.027C88.9847 157.227 92.9571 159.602 94.674 160.34C97.0811 161.379 99.7631 161.821 102.338 162.268C106.676 163.017 112.892 163.94 116.029 160.218C116.079 159.417 116.029 156.362 116.029 155.572C115.137 155.363 112.331 155.828 111.406 155.474C111.31 156.635 106.67 157.965 104.246 157.483C101.822 157.001 94.4496 155.555 90.9148 155.027Z" fill="#F5A900"/>
<path d="M91.6187 130.132C91.026 131.729 89.0802 137.762 88.823 138.673C88.0458 141.13 85.5521 141.883 82.3483 141.216C80.7604 140.901 78.4345 138.851 79.8323 138.215C82.0241 137.213 89.8518 131.469 91.6187 130.132Z" fill="#FF9100"/>
<path d="M133.153 51.2128C131.535 49.4882 129.352 47.0205 127.42 45.6056C125.444 44.1836 123.302 42.9846 121.037 42.0326C120.128 41.6896 117.48 40.9941 116.541 40.7368C115.238 43.0378 116.691 46.8537 119.039 49.1928C122.974 53.166 129.902 54.7667 133.153 51.2128Z" fill="#FFC400"/>
<path d="M89.4743 13.5789C88.2888 16.7583 90.5545 23.1012 97.7271 21.1261C96.8396 19.8944 95.8677 18.7043 94.8159 17.5612C93.7716 16.4867 92.5856 15.5085 91.279 14.644L89.4743 13.5789Z" fill="#FFC400"/>
<path fill-rule="evenodd" clip-rule="evenodd" d="M211.776 139.539C213.101 136.6 214.006 133.514 214.47 130.358C215.469 123.348 214.935 115.991 213.873 109.02C213.853 108.885 213.831 108.737 213.808 108.577C213.481 106.349 212.821 101.844 211.343 100.02C210.556 107.949 207.143 114.818 203.915 119.467C200.195 124.806 195.713 129.657 190.592 133.888C185.584 138.053 179.932 141.719 173.687 144.242C168.082 146.495 161.859 147.928 155.679 147.292C151.9 146.889 148.278 145.661 145.113 143.709C146.598 140.927 147.939 138.331 148.283 137.603C148.353 137.448 148.417 137.292 148.481 137.137C148.523 137.033 148.566 136.929 148.61 136.826C140.808 133.399 143.549 119.501 152.836 119.046C153.006 117.355 153.127 115.644 153.206 113.933C146.09 112.178 147.147 100.069 152.958 100.788C152.921 100.621 152.921 100.46 152.921 100.299C148.594 99.0375 144.426 93.841 142.884 90.8639C140.765 86.7575 140.544 81.8104 141.431 77.4107C141.996 74.6047 143.137 71.3587 146.043 69.985C145.476 68.5511 144.865 67.1318 144.21 65.7271C143.109 63.3255 141.866 60.982 140.485 58.7072C136.597 60.1933 133.074 55.3341 135.794 52.2104C135.77 52.1878 135.751 52.1636 135.732 52.1396C135.718 52.1221 135.704 52.1047 135.689 52.0882C135.314 51.6482 134.928 51.2229 134.521 50.8025C128.393 56.9962 114.204 47.7276 118.055 40.7126C117.01 40.4664 115.952 40.2722 114.885 40.1309C112.345 39.8424 109.776 39.8424 107.236 40.1309C105.978 40.224 104.73 40.4037 103.501 40.6686C103.396 40.6881 103.162 40.7304 102.833 40.7899C101.842 40.9692 99.9859 41.305 98.1656 41.6463C98.324 41.3383 98.4614 41.0646 98.567 40.8495C99.0541 39.7354 99.4273 38.5816 99.6817 37.4031C97.1407 37.1293 94.8374 34.8806 93.8707 32.6612C92.2542 28.9215 94.6261 25.304 98.1867 23.4512C98.1442 23.3475 98.1029 23.2433 98.0614 23.1388C97.9738 22.918 97.8856 22.6958 97.7852 22.4735C97.5316 21.9456 97.2516 21.4274 96.9558 20.9092C92.9462 22.2584 89.6287 18.0152 90.981 14.5052C90.2972 14.1031 89.58 13.7517 88.8363 13.4542L88.8003 13.4415C87.6877 13.0474 84.4461 11.8993 78.1757 12.76C71.9926 13.6859 66.1496 16.0024 61.16 19.5062C58.4109 21.3961 56.3504 24.0174 55.254 27.0198C54.3148 29.6184 53.7396 32.3177 53.5423 35.0517C53.2254 39.3829 53.0141 46.6521 58.3338 54.5373C58.3021 62.7549 58.001 84.5333 57.9429 85.9069C51.0859 87.5055 47.3668 96.3684 57.7897 100.519C56.7648 109.127 58.1595 112.833 60.6793 115.331C64.8157 119.408 75.1012 119.907 82.8668 117.712C83.3264 117.824 84.6206 118.181 86.496 118.831C90.981 120.381 98.4244 123.324 102.973 126.462C100.92 125.828 98.72 125.721 96.6071 126.154C94.1084 126.589 92.8775 128.652 91.9108 131.145C90.7072 134.083 89.812 137.122 89.2377 140.218C88.9241 142.95 89.1026 145.71 89.766 148.387C89.9129 148.972 89.9683 149.887 90.0294 150.898C90.0782 151.704 90.1307 152.571 90.2362 153.378C90.3084 153.857 90.4395 154.326 90.6271 154.776C90.7735 155.058 90.9505 155.325 91.1554 155.573C91.3545 155.794 91.5776 155.996 91.821 156.174C92.0455 156.315 92.2823 156.437 92.5289 156.541C93.0659 156.72 93.6219 156.847 94.1877 156.918C96.2372 157.081 98.2734 157.365 100.284 157.768C102.159 158.198 108.102 159.328 109.502 159.235C110.902 159.142 111.88 158.174 111.747 156.649C112.969 156.999 114.232 157.214 115.509 157.289C115.393 158.775 114.246 166.098 113.533 167.873C114.23 168.223 114.95 168.533 115.688 168.802C115.074 169.275 114.509 169.802 114.003 170.376C113.502 170.96 113.084 171.601 112.756 172.282C111.839 174.199 111.818 176.382 112.698 178.315C113.06 179.028 113.505 179.704 114.024 180.329C114.88 181.29 115.855 182.155 116.93 182.905C118.816 184.23 125.424 188.219 128.325 189.685C125.697 189.682 123.071 189.863 120.45 190.043C119.129 190.134 117.81 190.224 116.491 190.291C114.542 190.419 112.609 190.355 110.68 190.291C108.134 190.15 105.58 190.193 103.042 190.419C101.716 190.588 100.416 190.901 99.1693 191.352C98.5066 191.615 97.8761 191.943 97.2886 192.33C96.8096 192.679 96.3738 193.076 95.9891 193.513C95.5319 194.075 95.1455 194.684 94.8374 195.327C94.4646 196.276 94.2008 197.259 94.0503 198.26C93.8501 199.529 93.951 200.824 94.3461 202.053C94.8903 203.486 97.1037 203.989 97.8961 203.129C97.1724 206.937 107.009 208.687 109.323 205.192C109.788 205.586 110.398 205.801 111.029 205.793C113.008 205.967 114.966 205.31 116.366 204.005C117.766 202.699 118.459 200.881 118.256 199.052C121.344 198.732 124.453 198.618 127.559 198.71C130.556 198.794 133.557 198.691 136.539 198.402C138.317 198.209 140.063 197.817 141.737 197.233C142.549 196.921 143.318 196.522 144.03 196.045C144.525 195.695 144.975 195.293 145.372 194.848C145.736 194.408 146.042 193.931 146.286 193.425C146.53 192.854 146.708 192.261 146.814 191.655C147.047 189.607 145.847 185.853 140.216 185.853C139.861 185.693 139.422 185.505 138.922 185.291C133.408 182.928 120.415 177.361 129.54 170.992C129.994 171.202 130.459 171.397 130.929 171.578C133.547 172.542 136.286 173.199 139.08 173.534C143.719 174.029 148.407 173.977 153.032 173.377C160.965 172.332 168.72 170.349 176.107 167.477C183.011 164.827 189.726 161.571 195.69 157.431C199.697 154.622 203.307 151.359 206.435 147.717C208.582 145.212 210.377 142.463 211.776 139.539ZM112.087 139.235C113.375 141.52 114.927 144.271 115.567 148.172H115.551C112.119 147.426 108.554 147.369 105.097 148.006C105.097 142.707 107.844 131.663 107.96 132.851C109.297 134.591 110.502 136.414 111.568 138.307C111.734 138.609 111.908 138.917 112.087 139.235Z" fill="#FF9100"/>
<path d="M80.6242 96.3275C74.9124 97.0436 73.0631 100.606 75.6891 102.916C78.3152 105.226 83.4035 103.987 85.7284 100.78C88.0533 97.5729 86.3414 95.6238 80.6242 96.3275Z" fill="#EA7400"/>
<path d="M83.0688 96.1841C82.4894 96.1841 81.91 96.2464 81.2146 96.315C74.9508 97.0321 72.9227 100.599 75.8026 102.912C77.2454 104.084 79.3836 104.34 81.4638 103.909C79.511 101.652 80.0383 97.2939 83.0688 96.1841Z" fill="#D56200"/>
<path d="M128.205 120.853C132.377 115.98 135.409 110.437 137.129 104.542C139.777 95.5892 140.084 85.9237 137.343 76.9473C137.589 78.4306 137.787 79.9091 137.929 81.3924C138.43 86.7934 138.124 92.2284 137.019 97.5606C135.959 102.844 134.01 107.962 131.236 112.748C128.588 117.362 124.929 121.479 120.465 124.863C116.335 127.935 111.497 130.195 106.278 131.49C107.111 132.517 107.894 133.573 108.624 134.658C116.458 132.112 123.288 126.552 128.205 120.853Z" fill="#EA7400"/>
<path d="M121.02 167.05C122.452 166.04 123.814 164.908 125.314 163.981C125.885 163.624 126.47 163.3 127.046 162.947C125.787 163.448 124.513 163.916 123.253 164.408C120.807 165.277 118.485 166.428 116.338 167.834C115.558 168.394 114.848 169.037 114.222 169.749C113.756 170.303 113.366 170.911 113.062 171.557C112.181 173.37 112.161 175.451 113.007 177.278C113.344 177.955 113.758 178.596 114.242 179.188C114.459 179.439 114.69 179.684 114.926 179.921C113.662 177.403 113.549 174.385 115.27 172.016C116.8 169.916 118.886 168.576 121.02 167.05Z" fill="#FFAF41"/>
<path d="M129.122 104.059C126.908 109.108 123.53 113.684 119.207 117.491C114.868 121.182 109.594 123.881 103.835 125.36C104.966 126.457 112.646 123.627 115.973 121.603C117.921 120.424 119.702 119.041 121.278 117.482C125.69 113.143 129.093 108.066 131.291 102.545C133.628 96.5349 134.955 89.666 134.128 83.3262C133.883 81.5554 133.499 79.802 132.981 78.0786C133.338 81.3344 133.391 84.6111 133.139 87.8747C132.766 93.4253 131.41 98.8879 129.122 104.059Z" fill="#FFAF41"/>
<path d="M91.3351 137.497C92.7728 131.315 94.7976 127.247 97.7271 125.605C94.8935 126.058 93.4977 128.203 92.4014 130.796C91.0276 133.854 90.0045 137.018 89.3462 140.242C88.9905 143.083 89.1929 145.954 89.9453 148.738C90.0019 148.946 90.0439 149.156 90.0711 149.368C90.3886 148.265 89.8913 143.679 91.3351 137.497Z" fill="#FFAF41"/>
<path d="M62.8129 20.5834C68.6985 17.1007 75.458 15.183 82.3874 15.0301C85.5199 14.9583 88.6193 15.6527 91.3889 17.0468C91.2468 16.2054 91.3258 15.3437 91.6187 14.5383C90.9428 14.1297 90.2339 13.7726 89.4988 13.4704C88.4546 13.083 85.2278 11.8809 78.9623 12.7651C72.8574 13.7119 67.0899 16.0689 62.1655 19.6297C60.1908 21.0278 58.5678 22.8263 57.4141 24.8949C58.9963 23.2279 60.8131 21.777 62.8129 20.5834Z" fill="#FFAF41"/>
<path d="M95.88 23.7634C96.0832 23.6306 96.2919 23.492 96.5063 23.3708C96.3653 22.9898 96.2355 22.6029 96.0775 22.2161C95.8067 21.5926 95.5133 20.9806 95.1917 20.3687C94.8273 20.5068 94.4487 20.6017 94.0632 20.6515C94.7562 21.6327 95.3641 22.6739 95.88 23.7634Z" fill="#FFAF41"/>
<path d="M72.6246 89.9836C68.1624 91.763 66.606 97.6392 71.1148 99.579C65.1324 91.4216 84.9357 86.6885 89.1652 94.5201C89.4083 92.9527 85.6906 84.7591 72.6246 89.9836Z" fill="#FFAF41"/>
<path d="M117.988 40.737C118.101 40.2634 118.271 39.8052 118.494 39.3723C117.407 39.0952 116.306 38.8766 115.197 38.7174C112.554 38.3927 109.882 38.3927 107.239 38.7174L106.278 38.8385C110.259 38.8175 114.217 39.4591 117.988 40.737Z" fill="#FFAF41"/>
<path d="M95.4824 21.4999C95.837 21.4829 96.185 21.3858 96.5063 21.2143C95.8672 19.913 95.1665 18.6522 94.4072 17.4374C93.5642 16.2611 92.6153 15.1886 91.5759 14.2375L90.7158 13.5789C90.3922 14.5146 90.314 15.537 90.4905 16.5223C92.3111 17.9662 93.9853 19.6356 95.4824 21.4999Z" fill="#FFDF92"/>
<path d="M98.9487 28.2895C98.9487 28.2531 98.9487 28.2213 98.9487 28.1894C98.5428 26.3007 97.9396 24.4418 97.1452 22.6316L96.5055 22.9409C97.4891 24.6727 98.3058 26.4607 98.9487 28.2895H98.9487Z" fill="#FFDF92"/>
<path d="M121.918 150.518C121.918 150.478 121.869 150.518 121.879 150.518C122.196 152.363 120.803 152.907 118.523 152.81C116.243 152.714 111.26 150.693 107.544 150.937C107.52 150.937 107.5 150.96 107.5 150.988C107.5 151.016 107.52 151.039 107.544 151.039C110.754 151.944 114.241 153.495 117.651 153.767C119.794 154.191 123.077 153.671 121.918 150.518Z" fill="#EA7400"/>
<path d="M109.944 155.026C107.346 154.445 104.662 153.147 100.348 151.96C98.6911 151.512 96.8628 151.419 95.35 152.344C95.2431 152.408 95.2698 152.618 95.4141 152.577C98.1993 151.844 100.867 152.949 103.497 153.851C105.609 154.455 107.767 154.849 109.944 155.026Z" fill="#EA7400"/>
<path d="M119.593 155.11C119.573 155.059 119.531 155.027 119.486 155.027C119.441 155.027 119.399 155.059 119.379 155.11C118.92 156.974 117.387 156.901 116.071 156.989C116.042 156.989 116.046 157.036 116.071 157.047C117.149 157.446 120.384 157.664 119.593 155.11Z" fill="#EA7400"/>
<path d="M117.573 78.2249C122.484 62.8419 107.035 50.3508 87.9539 47.5266C94.4469 54.2969 99.5118 72.8619 99.2782 84.8597C103.95 87.621 115.296 85.353 117.573 78.2249Z" fill="#72301A"/>
<path d="M105.27 66.5483C106.047 70.8178 108.303 74.7716 111.731 77.8686C113.267 79.2021 114.939 80.4089 116.725 81.4739C117.055 80.9247 117.322 80.3482 117.523 79.7528C120.366 71.1328 116.742 63.4326 109.568 57.7107C109.464 57.7485 109.363 57.7915 109.265 57.8393C105.54 59.6543 104.562 63.1112 105.27 66.5483Z" fill="#FFAA99"/>
<path d="M107.031 83.9362C104.291 83.4436 101.696 82.9568 98.9489 82.605C99.0345 84.0887 99.0674 85.5372 99.0477 86.886C101.09 88.0589 104.173 88.487 107.42 88.1528C107.603 86.7382 107.471 85.3053 107.031 83.9362Z" fill="#FFFFEC"/>
<path d="M111.144 75.9403C109.166 74.9971 103.621 74.048 98.9486 73.5525C99.4177 76.4478 99.7545 79.2953 99.9469 81.9995C102.317 82.7785 104.749 83.3596 107.217 83.7367C109.274 82.1309 111.397 78.4954 111.144 75.9403Z" fill="#FFFFEC"/>
<path d="M103.19 58.2002C99.95 56.7739 96.1857 56.6447 92.8411 55.4473C94.1785 58.3033 95.3324 61.2254 96.2972 64.1992C98.2646 64.7216 100.232 65.1208 102.199 65.6315C103.609 64.5632 104.514 60.2723 103.19 58.2002Z" fill="#FFFFEC"/>
<path d="M94.2338 49.6657C92.5767 49.2525 90.8926 48.9099 89.1759 48.658C90.8054 50.5111 92.1621 52.5581 93.2103 54.7449C94.5334 55.5784 95.998 56.1984 97.5426 56.579C98.3386 53.8077 96.4325 51.4847 94.2338 49.6657Z" fill="#FFFFEC"/>
<path d="M115.201 66.7632C114.772 68.5801 114.641 70.9399 115.201 72.3705C116.304 72.4847 117.418 72.4052 118.494 72.1355C118.42 70.45 118.135 68.7802 117.646 67.1652C116.859 66.8975 116.033 66.7617 115.201 66.7632Z" fill="#FFFFEC"/>
<path d="M116.436 80.1834C116.948 78.5597 117.23 76.885 117.273 75.1988C115.396 74.8722 113.488 74.7 111.576 74.6843C111.157 76.4969 110.935 78.3992 111.523 80.122C112.327 80.4241 114.996 80.3864 116.436 80.1834Z" fill="#FFFFEC"/>
<path d="M111.182 79.3559C111.099 81.0833 111.308 83.6401 111.801 84.8686C113.13 83.5158 114.176 81.673 114.829 79.5368C113.63 79.1748 112.396 79.1137 111.182 79.3559Z" fill="#FFFFEC"/>
<path d="M103.96 75.788C105.364 73.3175 105.428 68.404 104.101 66.5567C104.101 66.5567 97.9803 64.8527 94.0618 64.4998C95.0638 67.6155 95.9062 70.8525 96.5572 74.073C98.9823 74.7678 101.465 75.2806 103.947 75.8155C103.954 75.8045 103.954 75.7935 103.96 75.788Z" fill="#FFFFEC"/>
<path d="M97.8562 90.6513C98.2778 96.4949 96.5421 102.269 93.5526 107.442C92.4455 109.373 91.1363 111.203 89.6433 112.907C88.1266 114.686 84.4527 117.285 81.8465 117.678C83.0745 118.124 84.3305 118.504 85.608 118.816C89.9225 116.947 93.3391 112.609 95.2226 109.022C97.9602 103.794 99.3838 99.0141 98.8308 93.8712C98.5351 91.1433 97.8234 90.1495 97.8562 90.6513Z" fill="#EA7400"/>
<path d="M79.2642 30.5856C74.2169 30.9848 70.4658 35.0904 70.8843 39.7676C71.3028 44.4449 75.7479 47.89 80.7697 47.4957C85.7916 47.1014 89.563 42.986 89.1445 38.3088C88.7261 33.6315 84.3013 30.1765 79.2642 30.5856Z" fill="#EA7400"/>
<path d="M79.7129 31.7265C75.0447 32.1906 71.6535 36.0554 72.1162 40.3842C72.5789 44.7131 76.7224 47.8865 81.3982 47.4933C86.0741 47.1 89.533 43.2872 89.1468 38.9519C88.9493 36.8273 87.8388 34.8654 86.0648 33.5067C84.2909 32.1481 82.0022 31.5066 79.7129 31.7265Z" fill="white"/>
<path d="M85.5627 33.9475C87.0136 35.3469 87.2392 36.875 87.2802 38.6564C87.352 42.619 84.2964 45.4621 79.6412 45.7909C76.7958 45.9952 73.7453 45.0224 72.074 42.8145C73.5767 45.8979 77.2032 47.7893 81.0511 47.4968C83.3708 47.3547 85.5296 46.4176 87.0498 44.8928C88.5701 43.3679 89.3264 41.381 89.1515 39.3717C88.9297 37.1954 87.618 35.2129 85.5627 33.9475V33.9475Z" fill="#FFDBAA"/>
<path d="M85.4986 37.5861C85.5864 38.6439 85.2145 39.6903 84.4653 40.4929C83.7162 41.2956 82.652 41.7878 81.5092 41.8604C79.162 41.9993 77.1344 40.3567 76.9706 38.1837C76.8069 36.0108 78.5686 34.1233 80.9138 33.959C83.259 33.7946 85.3073 35.4151 85.4986 37.5861Z" fill="#FF9127"/>
<path d="M81.8415 38.9008C81.878 39.3537 81.7216 39.8016 81.4071 40.145C81.0925 40.4885 80.6458 40.699 80.1662 40.73C79.1678 40.8132 78.2848 40.1211 78.1872 39.1788C78.1506 38.7267 78.3063 38.2794 78.6199 37.9361C78.9334 37.5928 79.3789 37.3817 79.8577 37.3496C80.8587 37.2613 81.7463 37.9554 81.8415 38.9008Z" fill="#341A36"/>
<path d="M81.8401 38.3569C81.8918 38.8166 81.6362 39.2592 81.1946 39.4747C80.7531 39.6902 80.2143 39.6353 79.834 39.3359C79.4536 39.0365 79.3083 38.553 79.4668 38.1147C79.6254 37.6765 80.0559 37.3716 80.5542 37.3448C81.2086 37.3026 81.7796 37.7521 81.8401 38.3569Z" fill="white"/>
<path d="M80.6234 38.9918C80.6478 39.3051 80.3969 39.5781 80.0613 39.6034C79.8453 39.6205 79.6359 39.5287 79.5121 39.3627C79.3883 39.1968 79.3688 38.9818 79.461 38.7988C79.5532 38.6158 79.7431 38.4925 79.9591 38.4755C80.2936 38.4523 80.5875 38.6807 80.6234 38.9918Z" fill="white"/>
<path d="M64.1505 38.4986C60.1157 38.8201 57.0896 42.1085 57.4427 45.8452C57.7957 49.5818 61.3211 52.3489 65.3508 52.0274C69.3805 51.7059 72.3814 48.4223 72.0485 44.6857C71.7156 40.949 68.1802 38.1819 64.1505 38.4986Z" fill="#EA7400"/>
<path d="M63.9606 38.5079C59.96 38.9066 57.0543 42.2195 57.4508 45.93C57.8474 49.6405 61.3979 52.361 65.4052 52.0247C69.4125 51.6885 72.3779 48.4213 72.0488 44.7052C71.873 42.8856 70.9192 41.2068 69.4 40.0427C67.8807 38.8787 65.9221 38.326 63.9606 38.5079Z" fill="white"/>
<path d="M68.01 39.6052C69.1552 40.8844 69.3294 42.2845 69.3593 43.9162C69.419 47.5524 67.0142 50.1611 63.3546 50.4633C61.0309 50.7152 58.7556 49.6696 57.4146 47.7337C58.5899 50.5621 61.4386 52.2971 64.4599 52.0245C66.2835 51.8944 67.9809 51.0351 69.1768 49.6364C70.3727 48.2378 70.9687 46.415 70.8331 44.5709C70.6583 42.5768 69.626 40.761 68.01 39.6052V39.6052Z" fill="#FFDBAA"/>
<path d="M65.9568 43.3289C66.0188 44.0844 65.7591 44.832 65.2354 45.4054C64.7117 45.9789 63.9676 46.3306 63.1684 46.3823C61.5055 46.5277 60.0306 45.3754 59.8673 43.8031C59.8038 43.0473 60.0629 42.2989 60.5869 41.7251C61.1109 41.1513 61.856 40.8 62.6557 40.7497C64.3196 40.6013 65.7964 41.7552 65.9568 43.3289Z" fill="#FF9127"/>
<path d="M65.9651 43.4493C65.992 44.3866 65.251 45.1804 64.2778 45.2569C63.3047 45.3334 62.4391 44.6659 62.3069 43.7369C62.2681 43.2762 62.4234 42.8199 62.738 42.4701C63.0526 42.1203 63.5001 41.9064 63.9804 41.8762C64.9808 41.7846 65.8692 42.4888 65.9651 43.4493Z" fill="#341A36"/>
<path d="M65.9622 42.9001C66.0133 43.5299 65.5121 44.0795 64.8423 44.1284C64.1786 44.1724 63.597 43.7143 63.5268 43.0923C63.4999 42.7902 63.6035 42.4907 63.8142 42.2612C64.0248 42.0317 64.3249 41.8915 64.6468 41.8724C65.3105 41.8191 65.8966 42.277 65.9622 42.9001Z" fill="white"/>
<path d="M63.823 44.107C63.8303 44.1811 63.8054 44.2548 63.754 44.3118C63.7025 44.3688 63.6287 44.4043 63.5489 44.4106C63.3831 44.4241 63.2368 44.3101 63.2222 44.156C63.2077 44.0019 63.3304 43.866 63.4963 43.8525C63.5763 43.8443 63.6564 43.8669 63.7181 43.9149C63.7798 43.963 63.8177 44.0324 63.823 44.107Z" fill="white"/>
<path d="M75.7391 26.7163L85.3876 28.2895L86.7334 24.2329L76.9242 22.6316L75.7391 26.7163Z" fill="#EA7400"/>
<path d="M75.7391 26.7091L85.38 28.2895L86.7334 24.2289L76.9115 22.6316L75.7391 26.7091Z" fill="#FFB753"/>
<path d="M57.443 38.4736L63.5229 35.0925L61.1629 32.8157L54.9718 36.2604L57.443 38.4736Z" fill="#EA7400"/>
<path d="M57.4365 38.4736L63.5229 35.0961L61.1629 32.8157L54.9718 36.2614L57.4365 38.4736Z" fill="#FFB753"/>
<path d="M120.451 65.6318C126.234 76.7902 121.887 85.6163 114.83 89.3884C114.784 89.413 118.683 89.5659 122.8 85.1873C127.704 79.9459 126.446 71.2234 120.451 65.6318Z" fill="#EA7400"/>
</svg>
